<svg xmlns="http://www.w3.org/2000/svg" version="1.1" xmlns:xlink="http://www.w3.org/1999/xlink" width="512" height="512" x="0" y="0" viewBox="0 0 498.226 498.226" style="enable-background:new 0 0 512 512" xml:space="preserve" class=""><g><path d="M48 362.77H15c-8.284 0-15 6.716-15 15s6.716 15 15 15h33c8.284 0 15-6.716 15-15s-6.716-15-15-15zM160 362.77h-56c-8.284 0-15 6.716-15 15s6.716 15 15 15h56c8.284 0 15-6.716 15-15s-6.716-15-15-15zM272 362.77h-56c-8.284 0-15 6.716-15 15s6.716 15 15 15h56c8.283 0 15-6.716 15-15s-6.717-15-15-15zM384 362.77h-56c-8.285 0-15 6.716-15 15s6.715 15 15 15h56c8.283 0 15-6.716 15-15s-6.717-15-15-15zM473 362.77h-33c-8.285 0-15 6.716-15 15s6.715 15 15 15h33c8.283 0 15-6.716 15-15s-6.717-15-15-15zM498.018 269.898c-.83-8.449-4.072-16.648-9.375-23.713-3.037-4.043-6.693-7.655-10.861-10.73-11.111-8.204-25.434-12.481-40.318-12.03a.78.78 0 0 0-.109.006l-3.316.191c-8.125.623-16.293 2.757-23.631 6.172l-.098.047c-2.541 1.268-3.348 1.706-3.656 1.886-22.951 12.417-39.941 17.467-51.41 19.364 5.018-10.484 14.604-25.395 32.92-43.979.26-.248.902-.905 2.832-2.991.021-.026.049-.05.066-.08 5.324-6.092 9.65-13.348 12.539-21.046l1.08-3.06a.44.44 0 0 0 .035-.104c6.344-19.624 3.408-40.967-7.66-55.702l-.004-.005c-3.711-4.938-8.256-9.029-13.518-12.161-9.08-5.392-19.957-7.54-30.635-6.041-9.844 1.376-19.463 5.675-27.801 12.426-4.797 3.886-9.078 8.524-12.693 13.728-4.875 7.513-7.195 12.85-8.467 16.531-7.058 20.049-4.478 42.221 6.883 57.341a48.906 48.906 0 0 0 6.51 7.091 45.113 45.113 0 0 0 4.176 3.328l-16.455 38.166-125.055 22.056c-.451.065-.906.131-1.361.194-2.822.41-5.75.831-8.705 1.957-10.935 4.161-17.211 14.049-20.543 21.606-1.619 3.674-2.673 6.762-3.3 9.71l-1.657 7.562a3.845 3.845 0 0 0 .914 3.415 3.85 3.85 0 0 0 3.314 1.222l136.215-17.099-19.999 48.164h48.378l26.133-55.168 39.801-4.988a46.71 46.71 0 0 0 6.898 12.994c10.838 14.43 30.105 23.193 50.291 22.874 23.186-.369 44.266-11.931 55.008-30.171 5.237-8.891 7.589-19.174 6.634-28.963zm-158.305-78.616a17.348 17.348 0 0 1-4.137-3.959c-4.971-6.613-5.303-16.15-3.965-22.867 1.875-9.369 7.051-17.786 14.193-23.081 6.604-4.896 14.105-6.282 20.062-3.705l.004.001c.006 0 .01.001.018.004 2.551 1.104 4.732 2.84 6.475 5.151 3.762 5.014 5.443 12.98 4.381 20.792-1.406 10.337-6.998 19.907-14.961 25.601-5.633 4.025-14.785 6.978-22.07 2.063zm127.453 84.813c-.367 3.5-1.936 7.018-4.525 10.171-5.666 6.898-15.287 11.293-25.742 11.752-8.484.373-19.736-2.146-25.877-10.317a20.093 20.093 0 0 1-.631-.895c-4.033-6.01-3.418-13.96 1.559-20.264 4.887-6.197 13-10.489 22.26-11.778l1.068-.136c8.68-.958 20.498.884 27.666 8.941.334.372.646.762.947 1.158 2.531 3.373 3.695 7.41 3.275 11.368z" fill="#000000" opacity="1" data-original="#000000" class=""></path></g></svg>