<svg xmlns="http://www.w3.org/2000/svg" version="1.1" xmlns:xlink="http://www.w3.org/1999/xlink" width="512" height="512" x="0" y="0" viewBox="0 0 512 512" style="enable-background:new 0 0 512 512" xml:space="preserve" class=""><g><path d="M349 7.5H140.493c-50.946 0-92.245 41.3-92.245 92.245v0c0 50.946 41.3 92.246 92.246 92.246h61.561M244.711 191.991h85.586v35.931c0 4.455 5.386 6.685 8.536 3.536l39.467-39.467h33.956c50.946 0 92.245-41.3 92.245-92.245v0C504.5 48.8 463.2 7.5 412.254 7.5H381" style="stroke-width:15;stroke-linecap:round;stroke-linejoin:round;stroke-miterlimit:10;" fill="none" stroke="#000000" stroke-width="15" stroke-linecap="round" stroke-linejoin="round" stroke-miterlimit="10" data-original="#000000"></path><path d="M297.144 133.79V75.495l39.412 57.072c.731 1.056 1.513.538 1.513-.745l-.546-56.435M183.597 75.386v58.404M269.508 75.386v58.404M114.276 75.386v58.404M154.692 75.386v58.404M114.276 103.586h40.416M407.535 80.373a29.064 29.064 0 0 0-16.327-4.987c-16.128 0-29.202 13.074-29.202 29.202s13.074 29.202 29.202 29.202 25.208-13.074 25.208-29.202h-17.471M218.339 105.915l24.534 27.875M211.297 75.386v58.404M211.316 75.386h15.52c8.687 0 16.037 6.796 16.037 15.178s-7.35 15.178-16.037 15.178c-4.308 0-15.412.067-15.412.067M441.472 75.386v33.947M441.472 133.79h0M120.611 397.221l25.525 69.781c.969 2.65.846 5.577-.342 8.137l-10.774 23.202c-3.992 8.598-16.387 8.076-19.643-.826l-31.688-86.63M285.429 410.337l-140.216-22.115-33.547-91.712 92.853-107.369z" style="stroke-width:15;stroke-linecap:round;stroke-linejoin:round;stroke-miterlimit:10;" fill="none" stroke="#000000" stroke-width="15" stroke-linecap="round" stroke-linejoin="round" stroke-miterlimit="10" data-original="#000000"></path><path d="m30.72 326.118-6.5 2.377c-13.205 4.83-19.994 19.451-15.164 32.656l16.055 43.893c4.83 13.205 19.451 19.994 32.656 15.164l87.446-31.986-33.547-91.713-53.12 19.43M310.075 424.202h0c-9.535 3.488-20.092-1.414-23.579-10.949l-83.043-227.027c-3.488-9.535 1.414-20.092 10.949-23.579h0c9.535-3.488 20.092 1.415 23.579 10.949l83.043 227.027c3.488 9.535-1.414 20.092-10.949 23.579zM54.735 361.055l30.717-11.235" style="stroke-width:15;stroke-linecap:round;stroke-linejoin:round;stroke-miterlimit:10;" fill="none" stroke="#000000" stroke-width="15" stroke-linecap="round" stroke-linejoin="round" stroke-miterlimit="10" data-original="#000000"></path></g></svg>