<svg xmlns="http://www.w3.org/2000/svg" version="1.1" xmlns:xlink="http://www.w3.org/1999/xlink" width="512" height="512" x="0" y="0" viewBox="0 0 512 512" style="enable-background:new 0 0 512 512" xml:space="preserve" class=""><g><path d="M131.756 352.381v149.064c-2.728 0-5.455-.641-7.967-1.923L17.569 445.37C11.407 442.231 7.5 435.73 7.5 428.618V300.389c0-3.586.993-7.015 2.769-9.942l121.487 61.934zM210.462 463.462 256 440.253V289.04l-124.241 63.342v149.06c2.721 0 5.455-.641 7.959-1.923l38.882-19.817" style="stroke-width:15;stroke-linecap:round;stroke-linejoin:round;stroke-miterlimit:10;" fill="none" stroke="#000000" stroke-width="15" stroke-linecap="round" stroke-linejoin="round" stroke-miterlimit="10" data-original="#000000" class=""></path><path d="m256 289.04-124.241 63.342-121.495-61.939c1.681-2.758 4.064-5.08 6.967-6.628l114.529-61.552L256 289.04zM380.244 352.381v149.064c2.728 0 5.455-.641 7.967-1.923l106.22-54.151c6.162-3.139 10.069-9.64 10.069-16.752v-128.23c0-3.586-.993-7.015-2.768-9.942l-121.488 61.934zM380.241 352.382v149.06c-2.721 0-5.455-.641-7.959-1.923L256 440.253V289.04l124.241 63.342z" style="stroke-width:15;stroke-linecap:round;stroke-linejoin:round;stroke-miterlimit:10;" fill="none" stroke="#000000" stroke-width="15" stroke-linecap="round" stroke-linejoin="round" stroke-miterlimit="10" data-original="#000000" class=""></path><path d="M316.1 256.737 256 289.04l124.241 63.342 121.495-61.939c-1.681-2.758-4.064-5.08-6.967-6.628l-50.38-27.076M256 138.273V289.04l-124.241-66.777-.003-135.977c0-3.586.993-7.015 2.768-9.941L256 138.273zM256 289.04V138.273l121.47-61.928a19.167 19.167 0 0 1 2.768 9.941l.001 27.396M377.47 76.344 256 138.273 134.524 76.344c1.682-2.763 4.059-5.08 6.961-6.634l106.204-57.055c.029-.012.053-.03.082-.042a17.473 17.473 0 0 1 16.534.042L370.509 69.71c2.902 1.555 5.285 3.871 6.961 6.634z" style="stroke-width:15;stroke-linecap:round;stroke-linejoin:round;stroke-miterlimit:10;" fill="none" stroke="#000000" stroke-width="15" stroke-linecap="round" stroke-linejoin="round" stroke-miterlimit="10" data-original="#000000" class=""></path><path d="M433.996 173.149c-13.313-14.562-32.466-23.696-53.752-23.696-40.212 0-72.81 32.598-72.81 72.81s32.598 72.81 72.81 72.81 72.81-32.598 72.81-72.81c0-6.178-.769-12.176-2.218-17.904" style="stroke-width:15;stroke-linecap:round;stroke-linejoin:round;stroke-miterlimit:10;" fill="none" stroke="#000000" stroke-width="15" stroke-linecap="round" stroke-linejoin="round" stroke-miterlimit="10" data-original="#000000" class=""></path><path d="m346.089 225.329 24.257 22.476 42.759-44.952" style="stroke-width:15;stroke-linecap:round;stroke-linejoin:round;stroke-miterlimit:10;" fill="none" stroke="#000000" stroke-width="15" stroke-linecap="round" stroke-linejoin="round" stroke-miterlimit="10" data-original="#000000" class=""></path></g></svg>